<svg width="14" height="16" viewBox="0 0 14 16" fill="none" xmlns="http://www.w3.org/2000/svg">
<path d="M3.368 4.56515L5.2 2.72469V10.3986C5.2 10.6108 5.28429 10.8144 5.43431 10.9644C5.58434 11.1145 5.78783 11.1988 6 11.1988C6.21217 11.1988 6.41566 11.1145 6.56569 10.9644C6.71571 10.8144 6.8 10.6108 6.8 10.3986V2.72469L8.632 4.56515C8.70637 4.64015 8.79485 4.69968 8.89234 4.74031C8.98983 4.78093 9.09439 4.80185 9.2 4.80185C9.30561 4.80185 9.41017 4.78093 9.50766 4.74031C9.60515 4.69968 9.69363 4.64015 9.768 4.56515C9.84298 4.49076 9.9025 4.40226 9.94311 4.30475C9.98373 4.20723 10.0046 4.10264 10.0046 3.99701C10.0046 3.89137 9.98373 3.78678 9.94311 3.68927C9.9025 3.59176 9.84298 3.50325 9.768 3.42887L6.568 0.228068C6.49192 0.155217 6.4022 0.0981108 6.304 0.0600258C6.10923 -0.0200086 5.89077 -0.0200086 5.696 0.0600258C5.5978 0.0981108 5.50808 0.155217 5.432 0.228068L2.232 3.42887C2.15741 3.50348 2.09824 3.59205 2.05787 3.68953C2.0175 3.78701 1.99673 3.89149 1.99673 3.99701C1.99673 4.10252 2.0175 4.207 2.05787 4.30448C2.09824 4.40197 2.15741 4.49054 2.232 4.56515C2.30659 4.63976 2.39514 4.69894 2.4926 4.73932C2.59006 4.7797 2.69451 4.80048 2.8 4.80048C2.90549 4.80048 3.00994 4.7797 3.1074 4.73932C3.20486 4.69894 3.29341 4.63976 3.368 4.56515ZM13.2 7.998C12.9878 7.998 12.7843 8.08231 12.6343 8.23238C12.4843 8.38244 12.4 8.58598 12.4 8.7982V13.5994C12.4 13.8116 12.3157 14.0152 12.1657 14.1652C12.0157 14.3153 11.8122 14.3996 11.6 14.3996H0.4C0.187827 14.3996 -0.0156561 14.3153 -0.165685 14.1652C-0.315714 14.0152 -0.4 13.8116 -0.4 13.5994V8.7982C-0.4 8.58598 -0.484285 8.38244 -0.634315 8.23238C-0.784344 8.08231 -0.987827 7.998 -1.2 7.998C-1.41217 7.998 -1.61566 8.08231 -1.76569 8.23238C-1.91571 8.38244 -2 8.58598 -2 8.7982V13.5994C-2 14.2361 -1.74714 14.8467 -1.29706 15.2969C-0.846969 15.7471 -0.23652 16 0.4 16H11.6C12.2365 16 12.847 15.7471 13.2971 15.2969C13.7471 14.8467 14 14.2361 14 13.5994V8.7982C14 8.58598 13.9157 8.38244 13.7657 8.23238C13.6157 8.08231 13.4122 7.998 13.2 7.998Z" fill="white"/>
</svg>
